<?xml version="1.0" encoding="utf-8"?>
<!-- Generator: Adobe Illustrator 27.5.0, SVG Export Plug-In . SVG Version: 6.00 Build 0)  -->
<svg version="1.1" xmlns="http://www.w3.org/2000/svg" xmlns:xlink="http://www.w3.org/1999/xlink" x="0px" y="0px"
	 viewBox="0 0 500 500" style="enable-background:new 0 0 500 500;" xml:space="preserve">
<g id="OBJECTS">
	<g id="XMLID_99_">
		<g id="XMLID_100_" style="opacity:0.9;">
			<ellipse id="XMLID_101_" style="opacity:0.2;fill:#FF9500;" cx="250" cy="340.625" rx="75" ry="37.5"/>
			<ellipse id="XMLID_102_" style="opacity:0.2;fill:#FF9500;" cx="250" cy="340.625" rx="65.625" ry="32.813"/>
			<ellipse id="XMLID_103_" style="opacity:0.2;fill:#FF9500;" cx="250" cy="340.625" rx="56.25" ry="28.125"/>
			<ellipse id="XMLID_104_" style="opacity:0.2;fill:#FF9500;" cx="250" cy="340.625" rx="46.875" ry="23.438"/>
		</g>
		<g id="XMLID_105_" style="opacity:0.5;">
			<path id="XMLID_106_" style="opacity:0.5;fill:#ff0000;" d="M310.913,304.136c-3.093,16.882-15.166,32.377-29.945,40.816
				c-7.765,4.432-16.464,7.142-25.371,7.943c-30.682,2.76-62.745-19.305-67.015-50.724c-2.998-22.089,9.216-39.365,22.309-55.729
				c3.909-4.889,8.014-9.619,12.181-14.293c3.767-4.23,7.73-8.314,11.427-12.625c2.351-2.74,4.579-5.602,6.54-8.639
				c0.981-1.513,1.933-3.067,2.728-4.688c0.524-1.076,1.184-3.025,2.609-1.546c1.702,1.761,2.788,4.343,3.761,6.577
				c0.356,0.815,0.682,1.645,0.989,2.484c0.468-1.146,0.917-2.298,1.339-3.465c2.001-5.514,3.492-11.126,4.025-16.985
				c0.091-1.006,0.498-3.741,1.896-2.154c0.726,0.819,1.36,1.723,1.981,2.627c2.577,3.747,4.983,7.603,7.221,11.556
				c2.134,3.768,4.379,7.663,6.11,11.63c0.251,0.486,0.501,0.965,0.746,1.452c0.623-2.629,1.079-5.299,1.324-8.02
				c0.098-1.007,0.504-3.742,1.902-2.154c0.72,0.82,1.354,1.723,1.975,2.627c2.577,3.747,4.989,7.602,7.221,11.556
				c2.134,3.768,4.379,7.663,6.11,11.63c2.748,5.294,5.412,10.633,7.847,16.074c4.838,10.804,8.907,22.141,10.439,33.932
				c0.049,0.404,0.097,0.807,0.146,1.204C312.128,291.564,312.058,297.896,310.913,304.136z"/>
		</g>
		<g id="XMLID_107_" style="opacity:0.5;">
			<path id="XMLID_269_" style="opacity:0.5;fill:#ff0000;" d="M188.758,287.825c-1.241,17.119,6.56,35.146,18.748,47.023
				c6.405,6.239,14.146,11.043,22.568,14.053c29.009,10.369,65.581-2.949,77.596-32.292c8.443-20.631,0.954-40.419-7.616-59.544
				c-2.558-5.713-5.345-11.322-8.206-16.891c-2.586-5.039-5.397-9.987-7.895-15.088c-1.589-3.243-3.027-6.571-4.163-10.004
				c-0.57-1.71-1.102-3.454-1.465-5.223c-0.238-1.173-0.387-3.225-2.138-2.151c-2.09,1.277-3.788,3.505-5.29,5.423
				c-0.549,0.7-1.073,1.422-1.581,2.156c-0.165-1.227-0.311-2.454-0.427-3.69c-0.554-5.84-0.589-11.647,0.364-17.452
				c0.164-0.997,0.456-3.746-1.295-2.56c-0.909,0.611-1.749,1.326-2.577,2.046c-3.435,2.98-6.73,6.11-9.889,9.375
				c-3.01,3.112-6.162,6.32-8.833,9.726c-0.365,0.407-0.727,0.809-1.086,1.218c0.056-2.701,0.284-5.401,0.73-8.095
				c0.158-0.999,0.45-3.748-1.301-2.562c-0.903,0.613-1.742,1.329-2.571,2.048c-3.435,2.98-6.736,6.108-9.889,9.375
				c-3.011,3.112-6.162,6.32-8.833,9.726c-3.988,4.435-7.906,8.935-11.628,13.592c-7.393,9.245-14.177,19.199-18.617,30.229
				c-0.148,0.378-0.297,0.757-0.443,1.129C190.735,275.35,189.214,281.497,188.758,287.825z"/>
		</g>
		<g id="XMLID_108_">
			<path id="XMLID_267_" style="opacity:0.5;fill:#ff0000;" d="M311.242,287.825c1.241,17.119-6.56,35.146-18.748,47.023
				c-6.405,6.239-14.146,11.043-22.568,14.053c-29.009,10.369-65.581-2.949-77.596-32.292c-8.443-20.631-0.954-40.419,7.616-59.544
				c2.558-5.713,5.345-11.322,8.206-16.891c2.586-5.039,5.397-9.987,7.895-15.088c1.589-3.243,3.027-6.571,4.163-10.004
				c0.57-1.71,1.102-3.454,1.465-5.223c0.238-1.173,0.387-3.225,2.138-2.151c2.089,1.277,3.788,3.505,5.29,5.423
				c0.549,0.7,1.072,1.422,1.581,2.156c0.165-1.227,0.311-2.454,0.427-3.69c0.554-5.84,0.589-11.647-0.364-17.452
				c-0.164-0.997-0.456-3.746,1.295-2.56c0.909,0.611,1.748,1.326,2.576,2.046c3.435,2.98,6.73,6.11,9.889,9.375
				c3.01,3.112,6.162,6.32,8.833,9.726c0.365,0.407,0.727,0.809,1.086,1.218c-0.056-2.701-0.284-5.401-0.73-8.095
				c-0.158-0.999-0.45-3.748,1.301-2.562c0.903,0.613,1.742,1.329,2.571,2.048c3.435,2.98,6.736,6.108,9.889,9.375
				c3.011,3.112,6.162,6.32,8.832,9.726c3.988,4.435,7.906,8.935,11.628,13.592c7.393,9.245,14.177,19.199,18.617,30.229
				c0.148,0.378,0.297,0.757,0.443,1.129C309.265,275.35,310.785,281.497,311.242,287.825z"/>
		</g>
		<g id="XMLID_109_">
			<path id="XMLID_265_" style="opacity:0.5;fill:#ff0000;" d="M172.183,279.677c0.89,21.659,13.255,43.166,30.247,56.328
				c8.929,6.913,19.33,11.836,30.328,14.41c37.884,8.866,81.875-13.073,92.758-51.612c7.646-27.096-4.58-50.856-18.067-73.631
				c-4.026-6.803-8.325-13.444-12.712-20.024c-3.965-5.954-8.2-11.761-12.063-17.805c-2.457-3.842-4.738-7.813-6.654-11.958
				c-0.96-2.065-1.876-4.176-2.585-6.345c-0.466-1.439-0.947-3.991-2.99-2.394c-2.439,1.902-4.253,4.939-5.864,7.562
				c-0.589,0.957-1.143,1.938-1.675,2.932c-0.383-1.516-0.741-3.035-1.063-4.57c-1.53-7.249-2.404-14.531-2.037-21.952
				c0.063-1.274,0.037-4.766-1.991-3.028c-1.053,0.897-2.004,1.914-2.941,2.936c-3.884,4.231-7.573,8.629-11.069,13.178
				c-3.333,4.335-6.829,8.811-9.694,13.467c-0.399,0.563-0.797,1.119-1.189,1.684c-0.316-3.398-0.415-6.818-0.241-10.263
				c0.055-1.276,0.029-4.768-1.999-3.03c-1.045,0.898-1.997,1.916-2.933,2.938c-3.884,4.231-7.58,8.627-11.069,13.178
				c-3.333,4.335-6.829,8.811-9.694,13.467c-4.371,6.136-8.644,12.343-12.649,18.718c-7.956,12.658-15.046,26.118-19.042,40.594
				c-0.132,0.496-0.264,0.992-0.395,1.48C172.881,263.74,171.852,271.671,172.183,279.677z"/>
		</g>
		<g id="XMLID_110_">
			<path id="XMLID_263_" style="opacity:0.5;fill:#ff0000;" d="M323.926,281.718c-0.4,20.592-11.703,41.276-27.574,54.128
				c-8.34,6.75-18.118,11.64-28.513,14.312c-35.804,9.2-78.042-10.735-89.173-47.12c-7.82-25.581,3.305-48.403,15.648-70.314
				c3.684-6.545,7.632-12.941,11.663-19.282c3.644-5.738,7.548-11.34,11.093-17.161c2.255-3.7,4.34-7.519,6.075-11.496
				c0.869-1.981,1.697-4.006,2.325-6.08c0.413-1.376,0.817-3.811,2.791-2.336c2.356,1.756,4.141,4.604,5.725,7.062
				c0.579,0.897,1.125,1.817,1.651,2.751c0.333-1.448,0.641-2.898,0.916-4.363c1.305-6.917,1.985-13.852,1.484-20.894
				c-0.086-1.209-0.133-4.527,1.829-2.917c1.019,0.83,1.943,1.777,2.854,2.728c3.777,3.939,7.371,8.041,10.786,12.29
				c3.255,4.05,6.668,8.23,9.485,12.593c0.391,0.527,0.78,1.046,1.163,1.575c0.23-3.234,0.254-6.485,0.018-9.754
				c-0.079-1.211-0.126-4.529,1.836-2.919c1.011,0.832,1.936,1.779,2.846,2.73c3.777,3.939,7.378,8.039,10.786,12.29
				c3.255,4.05,6.668,8.229,9.485,12.593c4.278,5.738,8.465,11.547,12.401,17.52c7.818,11.86,14.829,24.5,18.923,38.169
				c0.136,0.468,0.271,0.937,0.406,1.398C322.935,266.594,324.076,274.107,323.926,281.718z"/>
		</g>
		<g id="XMLID_111_" style="opacity:0.5;">
			<path id="XMLID_261_" style="opacity:0.5;fill:#ff0000;" d="M311.242,287.825c1.241,17.119-6.56,35.146-18.748,47.023
				c-6.405,6.239-14.146,11.043-22.568,14.053c-29.009,10.369-65.581-2.949-77.596-32.292c-8.443-20.631-0.954-40.419,7.616-59.544
				c2.558-5.713,5.345-11.322,8.206-16.891c2.586-5.039,5.397-9.987,7.895-15.088c1.589-3.243,3.027-6.571,4.163-10.004
				c0.57-1.71,1.102-3.454,1.465-5.223c0.238-1.173,0.387-3.225,2.138-2.151c2.089,1.277,3.788,3.505,5.29,5.423
				c0.549,0.7,1.072,1.422,1.581,2.156c0.165-1.227,0.311-2.454,0.427-3.69c0.554-5.84,0.589-11.647-0.364-17.452
				c-0.164-0.997-0.456-3.746,1.295-2.56c0.909,0.611,1.748,1.326,2.576,2.046c3.435,2.98,6.73,6.11,9.889,9.375
				c3.01,3.112,6.162,6.32,8.833,9.726c0.365,0.407,0.727,0.809,1.086,1.218c-0.056-2.701-0.284-5.401-0.73-8.095
				c-0.158-0.999-0.45-3.748,1.301-2.562c0.903,0.613,1.742,1.329,2.571,2.048c3.435,2.98,6.736,6.108,9.889,9.375
				c3.011,3.112,6.162,6.32,8.832,9.726c3.988,4.435,7.906,8.935,11.628,13.592c7.393,9.245,14.177,19.199,18.617,30.229
				c0.148,0.378,0.297,0.757,0.443,1.129C309.265,275.35,310.785,281.497,311.242,287.825z"/>
		</g>
		<polygon id="XMLID_259_" style="opacity:0.5;fill:#ff0000;" points="246.194,135.115 250,134.375 248.737,138.041 		"/>
		<polygon id="XMLID_258_" style="opacity:0.2;fill:#ff0000;" points="220.915,139.144 233.162,129.788 235.141,145.073 		"/>
		<polygon id="XMLID_257_" style="opacity:0.5;fill:#ff0000;" points="219.652,155.204 228.089,153.565 225.29,161.691 		"/>
		<polygon id="XMLID_256_" style="opacity:0.7;fill:#ff0000;" points="239.944,122.615 243.75,121.875 242.487,125.541 		"/>
		<polygon id="XMLID_255_" style="opacity:0.2;fill:#ff0000;" points="252.918,130.062 262.463,128.208 259.297,137.402 		"/>
		<polygon id="XMLID_254_" style="opacity:0.7;fill:#ff0000;" points="264.944,153.865 268.75,153.125 267.487,156.791 		"/>
		<polygon id="XMLID_253_" style="opacity:0.2;fill:#ff0000;" points="239.944,147.615 243.75,146.875 242.487,150.541 		"/>
		<g id="XMLID_112_">
			<defs>
				<path id="XMLID_115_" d="M325.519,298.8c-7.363,26.069-29.856,44.538-55.375,51.019c-0.013,0-0.031,0.006-0.044,0.013
					c-4.688,1.588-9.563,2.619-14.506,3.063c-8.062,0.725-16.219-0.263-23.938-2.688c-0.006,0-0.019-0.006-0.025-0.006
					c-19.181-4.613-36.663-16.325-46.756-33.213c-7.419-11.175-12.156-24.212-12.694-37.313c-0.331-8.006,0.7-15.938,2.719-23.737
					c0.131-0.488,0.262-0.988,0.394-1.481c4-14.475,11.087-27.938,19.044-40.594c4.006-6.375,8.281-12.581,12.65-18.719
					c2.863-4.656,6.362-9.131,9.694-13.469c3.488-4.55,7.188-8.944,11.069-13.175c0.938-1.025,1.888-2.038,2.931-2.938
					c2.031-1.737,2.056,1.75,2,3.031c-0.175,3.444-0.075,6.862,0.244,10.262c0.387-0.569,0.787-1.125,1.187-1.688
					c1.194-1.944,2.5-3.856,3.856-5.737c0.275-3.481,0.319-6.981,0.069-10.506c-0.087-1.206-0.131-4.525,1.831-2.919
					c1.019,0.831,1.944,1.781,2.85,2.731c0.625,0.65,1.25,1.306,1.863,1.969c3.262-4.194,6.694-8.263,10.294-12.181
					c0.938-1.019,1.887-2.037,2.938-2.938c2.031-1.737,2.056,1.756,1.994,3.031c-0.369,7.419,0.506,14.7,2.038,21.95
					c0.325,1.538,0.681,3.056,1.063,4.569c0.531-0.994,1.088-1.975,1.675-2.931c1.612-2.619,3.425-5.656,5.862-7.562
					c2.044-1.594,2.525,0.956,2.994,2.394c0.706,2.169,1.625,4.281,2.581,6.35c1.919,4.144,4.2,8.113,6.656,11.956
					c3.863,6.044,8.1,11.85,12.063,17.806c4.388,6.575,8.688,13.219,12.713,20.019C320.938,247.944,333.163,271.706,325.519,298.8z"
					/>
			</defs>
			<clipPath id="XMLID_00000134221546972669977710000010266889513731658391_">
				<use xlink:href="#XMLID_115_"  style="overflow:visible;"/>
			</clipPath>
			
				<path id="XMLID_113_" style="opacity:0.3;clip-path:url(#XMLID_00000134221546972669977710000010266889513731658391_);fill:#FCE4EC;" d="
				M219.193,330.496c0.325,8.576,5.193,17.105,11.904,22.337c3.526,2.748,7.637,4.71,11.988,5.743
				c14.987,3.557,32.43-5.073,36.786-20.316c3.061-10.717-1.749-20.139-7.06-29.172c-1.585-2.699-3.279-5.333-5.007-7.943
				c-1.562-2.362-3.232-4.666-4.753-7.064c-0.968-1.524-1.866-3.099-2.619-4.742c-0.377-0.819-0.737-1.656-1.015-2.515
				c-0.183-0.57-0.37-1.581-1.181-0.952c-0.968,0.75-1.69,1.95-2.331,2.986c-0.234,0.378-0.455,0.766-0.667,1.159
				c-0.15-0.601-0.289-1.202-0.415-1.81c-0.597-2.872-0.934-5.756-0.779-8.693c0.026-0.504,0.021-1.887-0.785-1.201
				c-0.418,0.354-0.796,0.755-1.168,1.159c-1.543,1.67-3.009,3.407-4.399,5.203c-1.325,1.712-2.714,3.48-3.854,5.319
				c-0.159,0.222-0.317,0.442-0.473,0.665c-0.121-1.345-0.156-2.7-0.083-4.063c0.023-0.505,0.018-1.888-0.788-1.202
				c-0.415,0.354-0.793,0.756-1.165,1.159c-1.543,1.67-3.012,3.406-4.399,5.203c-1.325,1.712-2.714,3.48-3.854,5.319
				c-1.738,2.423-3.438,4.875-5.031,7.394c-3.165,5.001-5.989,10.321-7.589,16.047c-0.053,0.196-0.106,0.392-0.158,0.585
				C219.489,324.188,219.072,327.326,219.193,330.496z"/>
		</g>
	</g>
</g>
<g id="DESIGNED_BY_FREEPIK">
	<g id="XMLID_543_">
		<g id="XMLID_544_">
			<path id="XMLID_545_" style="opacity:0.5;fill:#ff0000;" d="M180.307,483.929v-0.161c-0.218,0.249-0.432,0.452-0.644,0.608
				c-0.212,0.157-0.441,0.276-0.689,0.357c-0.247,0.082-0.517,0.122-0.81,0.122c-0.388,0-0.747-0.082-1.078-0.246
				c-0.33-0.164-0.616-0.399-0.857-0.704c-0.242-0.305-0.425-0.662-0.549-1.074c-0.125-0.412-0.187-0.857-0.187-1.335
				c0-1.013,0.248-1.804,0.742-2.369c0.495-0.565,1.146-0.848,1.953-0.848c0.467,0,0.861,0.081,1.181,0.24
				c0.321,0.16,0.634,0.408,0.938,0.739v-2.392c0-0.333,0.066-0.583,0.199-0.754c0.132-0.17,0.321-0.255,0.567-0.255
				c0.245,0,0.434,0.078,0.566,0.234c0.133,0.157,0.199,0.386,0.199,0.691v7.147c0,0.309-0.071,0.54-0.214,0.695
				c-0.142,0.154-0.326,0.231-0.552,0.231c-0.221,0-0.405-0.08-0.549-0.24C180.379,484.453,180.307,484.225,180.307,483.929z
				 M177.119,481.548c0,0.439,0.068,0.813,0.205,1.122c0.137,0.309,0.324,0.541,0.561,0.697c0.237,0.157,0.497,0.236,0.777,0.236
				c0.285,0,0.545-0.074,0.781-0.223c0.236-0.148,0.424-0.376,0.564-0.682c0.14-0.307,0.211-0.691,0.211-1.149
				c0-0.432-0.07-0.803-0.211-1.114c-0.14-0.31-0.33-0.547-0.57-0.712c-0.239-0.164-0.502-0.245-0.786-0.245
				c-0.297,0-0.562,0.084-0.796,0.252c-0.233,0.168-0.414,0.409-0.542,0.724C177.184,480.767,177.119,481.133,177.119,481.548z"/>
			<path id="XMLID_548_" style="opacity:0.5;fill:#ff0000;" d="M187.453,481.958h-3.169c0.004,0.367,0.078,0.692,0.223,0.973
				c0.144,0.281,0.336,0.493,0.576,0.635c0.24,0.143,0.504,0.213,0.793,0.213c0.193,0,0.37-0.022,0.531-0.067
				c0.16-0.046,0.315-0.117,0.466-0.214c0.151-0.096,0.289-0.201,0.416-0.312c0.126-0.111,0.29-0.262,0.493-0.452
				c0.083-0.071,0.202-0.107,0.356-0.107c0.166,0,0.3,0.046,0.403,0.137c0.103,0.091,0.155,0.219,0.155,0.386
				c0,0.146-0.058,0.317-0.172,0.513c-0.115,0.196-0.289,0.384-0.519,0.564c-0.233,0.18-0.523,0.329-0.874,0.448
				c-0.35,0.119-0.753,0.178-1.208,0.178c-1.04,0-1.85-0.297-2.427-0.891c-0.578-0.593-0.867-1.399-0.867-2.416
				c0-0.479,0.071-0.923,0.214-1.332c0.143-0.41,0.35-0.761,0.623-1.054c0.273-0.293,0.609-0.517,1.01-0.674
				c0.399-0.156,0.843-0.234,1.329-0.234c0.633,0,1.176,0.133,1.629,0.4c0.453,0.267,0.793,0.612,1.019,1.035
				c0.225,0.424,0.338,0.856,0.338,1.294c0,0.408-0.117,0.672-0.35,0.793C188.206,481.897,187.878,481.958,187.453,481.958z
				 M184.284,481.038h2.939c-0.039-0.554-0.19-0.969-0.449-1.244c-0.259-0.275-0.6-0.413-1.024-0.413
				c-0.404,0-0.735,0.139-0.994,0.418C184.497,480.078,184.34,480.492,184.284,481.038z"/>
			<path id="XMLID_551_" style="opacity:0.5;fill:#4B4B4B;" d="M194.838,482.735c0,0.447-0.109,0.831-0.327,1.149
				c-0.217,0.319-0.539,0.56-0.965,0.724c-0.425,0.164-0.942,0.246-1.552,0.246c-0.582,0-1.08-0.089-1.496-0.267
				c-0.415-0.178-0.722-0.401-0.92-0.667c-0.198-0.268-0.297-0.535-0.297-0.805c0-0.178,0.063-0.33,0.19-0.457
				c0.126-0.126,0.287-0.19,0.481-0.19c0.17,0,0.3,0.042,0.391,0.125c0.092,0.083,0.179,0.2,0.261,0.35
				c0.166,0.29,0.366,0.504,0.597,0.648c0.231,0.142,0.547,0.214,0.947,0.214c0.324,0,0.59-0.073,0.798-0.217
				c0.208-0.145,0.311-0.31,0.311-0.496c0-0.285-0.107-0.492-0.324-0.622c-0.216-0.131-0.571-0.256-1.066-0.375
				c-0.558-0.138-1.012-0.284-1.362-0.436c-0.35-0.151-0.63-0.353-0.84-0.602c-0.21-0.25-0.315-0.557-0.315-0.92
				c0-0.324,0.097-0.631,0.291-0.92c0.194-0.288,0.48-0.519,0.858-0.691c0.377-0.173,0.833-0.259,1.368-0.259
				c0.419,0,0.796,0.043,1.13,0.131c0.335,0.086,0.615,0.204,0.837,0.35c0.224,0.146,0.394,0.308,0.51,0.486
				c0.117,0.178,0.175,0.352,0.175,0.523c0,0.185-0.062,0.338-0.187,0.457c-0.125,0.118-0.302,0.178-0.532,0.178
				c-0.166,0-0.308-0.048-0.424-0.143c-0.117-0.095-0.25-0.237-0.4-0.427c-0.123-0.158-0.267-0.285-0.433-0.38
				c-0.166-0.095-0.392-0.142-0.677-0.142c-0.293,0-0.536,0.062-0.73,0.187c-0.194,0.124-0.291,0.279-0.291,0.465
				c0,0.171,0.071,0.31,0.214,0.419c0.143,0.109,0.334,0.2,0.576,0.27c0.242,0.071,0.573,0.158,0.997,0.261
				c0.502,0.123,0.913,0.27,1.232,0.439c0.318,0.17,0.56,0.371,0.725,0.603C194.756,482.174,194.838,482.438,194.838,482.735z"/>
			<path id="XMLID_553_" style="opacity:0.5;fill:#4B4B4B;" d="M196.493,477.512c-0.225,0-0.418-0.07-0.579-0.208
				c-0.16-0.138-0.241-0.334-0.241-0.588c0-0.23,0.082-0.418,0.247-0.567c0.164-0.149,0.355-0.223,0.572-0.223
				c0.21,0,0.396,0.067,0.558,0.202c0.162,0.135,0.244,0.33,0.244,0.588c0,0.25-0.08,0.444-0.238,0.585
				C196.899,477.441,196.711,477.512,196.493,477.512z M197.295,479.185v4.683c0,0.325-0.077,0.571-0.232,0.737
				c-0.154,0.166-0.35,0.249-0.588,0.249c-0.237,0-0.43-0.085-0.579-0.255c-0.149-0.17-0.223-0.414-0.223-0.731v-4.636
				c0-0.32,0.074-0.562,0.223-0.724c0.148-0.162,0.341-0.243,0.579-0.243c0.238,0,0.433,0.081,0.588,0.243
				C197.218,478.671,197.295,478.897,197.295,479.185z"/>
			<path id="XMLID_556_" style="opacity:0.5;fill:#4B4B4B;" d="M204.394,479.453v4.707c0,0.538-0.058,1.001-0.173,1.39
				c-0.114,0.387-0.298,0.708-0.552,0.961c-0.253,0.253-0.585,0.441-0.994,0.563c-0.409,0.123-0.919,0.184-1.529,0.184
				c-0.558,0-1.057-0.078-1.496-0.234c-0.439-0.157-0.777-0.358-1.015-0.605c-0.237-0.247-0.356-0.502-0.356-0.763
				c0-0.198,0.068-0.359,0.203-0.483c0.134-0.125,0.297-0.187,0.486-0.187c0.237,0,0.445,0.105,0.623,0.314
				c0.087,0.107,0.177,0.215,0.27,0.324c0.093,0.109,0.197,0.202,0.309,0.28c0.113,0.076,0.248,0.134,0.406,0.172
				c0.159,0.037,0.341,0.056,0.546,0.056c0.42,0,0.745-0.058,0.977-0.175c0.231-0.117,0.394-0.28,0.486-0.49
				c0.093-0.209,0.148-0.433,0.164-0.673c0.016-0.24,0.027-0.624,0.035-1.155c-0.25,0.349-0.537,0.615-0.864,0.796
				c-0.326,0.182-0.715,0.273-1.166,0.273c-0.543,0-1.016-0.138-1.422-0.416c-0.405-0.277-0.717-0.665-0.934-1.163
				c-0.218-0.499-0.327-1.074-0.327-1.727c0-0.487,0.066-0.927,0.198-1.318c0.133-0.392,0.322-0.723,0.567-0.992
				c0.245-0.269,0.528-0.472,0.849-0.609c0.32-0.136,0.673-0.204,1.056-0.204c0.459,0,0.857,0.089,1.193,0.264
				c0.336,0.177,0.65,0.453,0.938,0.829v-0.22c0-0.281,0.069-0.498,0.208-0.653c0.138-0.154,0.317-0.231,0.535-0.231
				c0.313,0,0.52,0.103,0.623,0.306C204.342,478.775,204.394,479.069,204.394,479.453z M199.699,481.507
				c0,0.657,0.143,1.153,0.43,1.49c0.287,0.337,0.659,0.505,1.113,0.505c0.269,0,0.523-0.073,0.762-0.217
				c0.24-0.145,0.435-0.363,0.585-0.653c0.15-0.291,0.226-0.644,0.226-1.06c0-0.66-0.145-1.176-0.436-1.543
				c-0.291-0.368-0.674-0.552-1.149-0.552c-0.463,0-0.834,0.176-1.113,0.529C199.838,480.357,199.699,480.858,199.699,481.507z"/>
			<path id="XMLID_559_" style="opacity:0.5;fill:#4B4B4B;" d="M206.97,479.162v0.196c0.284-0.376,0.596-0.652,0.934-0.828
				c0.339-0.176,0.727-0.264,1.166-0.264c0.428,0,0.809,0.093,1.146,0.279c0.336,0.186,0.588,0.449,0.753,0.789
				c0.107,0.198,0.176,0.413,0.208,0.642c0.032,0.23,0.048,0.522,0.048,0.879v3.015c0,0.325-0.075,0.571-0.223,0.737
				c-0.148,0.166-0.341,0.249-0.579,0.249c-0.242,0-0.437-0.085-0.588-0.255c-0.151-0.17-0.225-0.414-0.225-0.731v-2.701
				c0-0.534-0.074-0.943-0.223-1.226c-0.149-0.283-0.444-0.425-0.888-0.425c-0.288,0-0.552,0.086-0.789,0.258
				c-0.237,0.173-0.411,0.41-0.523,0.71c-0.079,0.242-0.118,0.692-0.118,1.353v2.03c0,0.328-0.077,0.576-0.228,0.74
				c-0.153,0.164-0.349,0.246-0.591,0.246c-0.234,0-0.425-0.085-0.576-0.255c-0.15-0.17-0.225-0.414-0.225-0.731v-4.683
				c0-0.309,0.067-0.54,0.202-0.692c0.135-0.152,0.318-0.228,0.552-0.228c0.143,0,0.272,0.034,0.387,0.101
				c0.114,0.068,0.206,0.169,0.276,0.302C206.935,478.803,206.97,478.968,206.97,479.162z"/>
			<path id="XMLID_561_" style="opacity:0.5;fill:#4B4B4B;" d="M216.829,481.958h-3.169c0.004,0.367,0.077,0.692,0.223,0.973
				c0.144,0.281,0.336,0.493,0.576,0.635c0.239,0.143,0.504,0.213,0.792,0.213c0.194,0,0.371-0.022,0.532-0.067
				c0.16-0.046,0.315-0.117,0.466-0.214c0.15-0.096,0.288-0.201,0.416-0.312c0.126-0.111,0.29-0.262,0.492-0.452
				c0.083-0.071,0.202-0.107,0.357-0.107c0.166,0,0.301,0.046,0.403,0.137c0.103,0.091,0.154,0.219,0.154,0.386
				c0,0.146-0.057,0.317-0.172,0.513c-0.115,0.196-0.288,0.384-0.52,0.564c-0.231,0.18-0.522,0.329-0.872,0.448
				c-0.35,0.119-0.753,0.178-1.208,0.178c-1.041,0-1.85-0.297-2.429-0.891c-0.577-0.593-0.866-1.399-0.866-2.416
				c0-0.479,0.071-0.923,0.214-1.332c0.142-0.41,0.35-0.761,0.624-1.054c0.273-0.293,0.609-0.517,1.009-0.674
				c0.399-0.156,0.843-0.234,1.33-0.234c0.633,0,1.176,0.133,1.629,0.4c0.453,0.267,0.793,0.612,1.019,1.035
				c0.225,0.424,0.339,0.856,0.339,1.294c0,0.408-0.117,0.672-0.35,0.793C217.581,481.897,217.252,481.958,216.829,481.958z
				 M213.659,481.038h2.938c-0.04-0.554-0.189-0.969-0.448-1.244c-0.259-0.275-0.601-0.413-1.024-0.413
				c-0.404,0-0.736,0.139-0.995,0.418C213.871,480.078,213.715,480.492,213.659,481.038z"/>
			<path id="XMLID_564_" style="opacity:0.5;fill:#4B4B4B;" d="M223.435,483.929v-0.161c-0.217,0.249-0.432,0.452-0.644,0.608
				c-0.212,0.157-0.441,0.276-0.688,0.357c-0.247,0.082-0.517,0.122-0.81,0.122c-0.388,0-0.747-0.082-1.077-0.246
				c-0.331-0.164-0.616-0.399-0.858-0.704c-0.242-0.305-0.424-0.662-0.549-1.074c-0.125-0.412-0.187-0.857-0.187-1.335
				c0-1.013,0.247-1.804,0.742-2.369c0.494-0.565,1.146-0.848,1.953-0.848c0.467,0,0.861,0.081,1.181,0.24
				c0.32,0.16,0.633,0.408,0.938,0.739v-2.392c0-0.333,0.066-0.583,0.199-0.754c0.132-0.17,0.322-0.255,0.567-0.255
				c0.245,0,0.434,0.078,0.566,0.234c0.132,0.157,0.199,0.386,0.199,0.691v7.147c0,0.309-0.071,0.54-0.214,0.695
				c-0.142,0.154-0.326,0.231-0.552,0.231c-0.221,0-0.405-0.08-0.549-0.24C223.507,484.453,223.435,484.225,223.435,483.929z
				 M220.247,481.548c0,0.439,0.068,0.813,0.204,1.122c0.137,0.309,0.324,0.541,0.562,0.697c0.237,0.157,0.496,0.236,0.777,0.236
				c0.286,0,0.546-0.074,0.781-0.223c0.236-0.148,0.424-0.376,0.564-0.682c0.141-0.307,0.211-0.691,0.211-1.149
				c0-0.432-0.07-0.803-0.211-1.114c-0.14-0.31-0.33-0.547-0.57-0.712c-0.24-0.164-0.502-0.245-0.787-0.245
				c-0.297,0-0.562,0.084-0.795,0.252c-0.233,0.168-0.415,0.409-0.543,0.724C220.312,480.767,220.247,481.133,220.247,481.548z"/>
			<path id="XMLID_567_" style="opacity:0.5;fill:#4B4B4B;" d="M230.059,476.781v2.475c0.304-0.316,0.615-0.559,0.932-0.727
				c0.316-0.168,0.709-0.252,1.176-0.252c0.538,0,1.009,0.128,1.416,0.382c0.405,0.256,0.72,0.626,0.944,1.111
				c0.223,0.484,0.336,1.06,0.336,1.725c0,0.491-0.063,0.94-0.187,1.35c-0.124,0.409-0.306,0.765-0.543,1.065
				c-0.237,0.301-0.525,0.534-0.864,0.698c-0.339,0.164-0.712,0.246-1.119,0.246c-0.25,0-0.485-0.029-0.704-0.089
				c-0.22-0.059-0.407-0.137-0.561-0.234c-0.154-0.096-0.286-0.197-0.395-0.3c-0.109-0.103-0.253-0.258-0.43-0.463v0.161
				c0,0.305-0.073,0.535-0.22,0.692c-0.146,0.156-0.332,0.234-0.558,0.234c-0.23,0-0.413-0.078-0.549-0.234
				c-0.137-0.157-0.204-0.388-0.204-0.692v-7.076c0-0.328,0.066-0.577,0.198-0.745c0.132-0.168,0.318-0.252,0.555-0.252
				c0.25,0,0.441,0.08,0.576,0.24C229.991,476.256,230.059,476.484,230.059,476.781z M230.136,481.596
				c0,0.645,0.148,1.14,0.443,1.486c0.295,0.347,0.682,0.521,1.16,0.521c0.408,0,0.759-0.177,1.053-0.532
				c0.295-0.355,0.442-0.862,0.442-1.523c0-0.427-0.061-0.796-0.184-1.104c-0.123-0.309-0.297-0.547-0.522-0.715
				c-0.226-0.168-0.489-0.252-0.79-0.252c-0.308,0-0.584,0.084-0.825,0.252c-0.241,0.168-0.431,0.411-0.57,0.73
				C230.205,480.777,230.136,481.156,230.136,481.596z"/>
			<path id="XMLID_570_" style="opacity:0.5;fill:#4B4B4B;" d="M236.963,485.056l0.148-0.363l-1.995-5.022
				c-0.123-0.288-0.184-0.499-0.184-0.629c0-0.139,0.036-0.267,0.107-0.385c0.071-0.119,0.169-0.214,0.294-0.285
				c0.125-0.072,0.255-0.107,0.389-0.107c0.233,0,0.409,0.074,0.529,0.223c0.119,0.148,0.223,0.361,0.314,0.638l1.372,3.989
				l1.3-3.71c0.103-0.3,0.195-0.536,0.279-0.706c0.083-0.17,0.171-0.285,0.264-0.344c0.093-0.06,0.225-0.09,0.395-0.09
				c0.123,0,0.24,0.032,0.353,0.098c0.113,0.065,0.2,0.153,0.261,0.264c0.061,0.111,0.092,0.227,0.092,0.35
				c-0.016,0.075-0.041,0.182-0.077,0.321c-0.036,0.138-0.079,0.28-0.13,0.421l-2.114,5.533c-0.182,0.486-0.36,0.868-0.535,1.145
				c-0.174,0.277-0.404,0.491-0.691,0.638c-0.287,0.149-0.674,0.223-1.16,0.223c-0.475,0-0.831-0.051-1.068-0.154
				c-0.238-0.104-0.356-0.292-0.356-0.565c0-0.185,0.056-0.33,0.17-0.43c0.112-0.101,0.279-0.152,0.501-0.152
				c0.087,0,0.173,0.012,0.256,0.037c0.103,0.023,0.192,0.035,0.267,0.035c0.186,0,0.333-0.027,0.44-0.084
				c0.106-0.055,0.202-0.151,0.288-0.288C236.753,485.523,236.852,485.321,236.963,485.056z"/>
		</g>
		<g id="XMLID_572_">
			<g id="XMLID_573_">
				<path id="XMLID_574_" style="opacity:0.5;fill:#4B4B4B;" d="M260.439,478.405h0.386v-0.486c0-0.509,0.062-0.911,0.192-1.211
					c0.128-0.299,0.347-0.516,0.654-0.653c0.306-0.135,0.727-0.204,1.26-0.204c0.95,0,1.42,0.229,1.42,0.697
					c0,0.149-0.049,0.278-0.15,0.384c-0.096,0.106-0.214,0.16-0.349,0.16c-0.062,0-0.174-0.012-0.329-0.037
					c-0.148-0.021-0.283-0.035-0.389-0.035c-0.292,0-0.479,0.088-0.566,0.259c-0.079,0.172-0.122,0.418-0.122,0.74v0.386h0.396
					c0.619,0,0.926,0.186,0.926,0.56c0,0.262-0.079,0.431-0.245,0.503c-0.163,0.071-0.39,0.107-0.68,0.107h-0.396v4.294
					c0,0.319-0.075,0.563-0.231,0.73c-0.151,0.17-0.346,0.254-0.589,0.254c-0.229,0-0.419-0.084-0.574-0.254
					c-0.152-0.167-0.228-0.411-0.228-0.73v-4.294h-0.446c-0.243,0-0.427-0.052-0.558-0.164c-0.131-0.107-0.197-0.25-0.197-0.424
					C259.624,478.598,259.896,478.405,260.439,478.405"/>
				<path id="XMLID_575_" style="opacity:0.5;fill:#4B4B4B;" d="M265.745,482.514v1.355c0,0.327-0.083,0.574-0.234,0.737
					c-0.154,0.166-0.349,0.247-0.586,0.247c-0.239,0-0.43-0.082-0.579-0.25c-0.148-0.165-0.225-0.41-0.225-0.734v-4.514
					c0-0.729,0.263-1.093,0.788-1.093c0.271,0,0.464,0.084,0.583,0.255c0.118,0.171,0.184,0.421,0.198,0.755
					c0.192-0.334,0.39-0.584,0.593-0.755c0.207-0.171,0.477-0.255,0.819-0.255c0.343,0,0.67,0.084,0.99,0.255
					c0.322,0.171,0.482,0.398,0.482,0.678c0,0.197-0.069,0.363-0.204,0.488c-0.137,0.131-0.284,0.195-0.441,0.195
					c-0.062,0-0.207-0.039-0.433-0.112c-0.228-0.071-0.43-0.108-0.602-0.108c-0.237,0-0.433,0.064-0.582,0.186
					c-0.151,0.128-0.269,0.311-0.353,0.554c-0.081,0.247-0.137,0.541-0.17,0.878C265.759,481.615,265.745,482.028,265.745,482.514"
					/>
				<path id="XMLID_576_" style="opacity:0.5;fill:#4B4B4B;" d="M273.195,481.957h-3.171c0.006,0.367,0.078,0.694,0.222,0.974
					c0.147,0.279,0.338,0.491,0.578,0.635c0.24,0.142,0.502,0.212,0.793,0.212c0.194,0,0.371-0.021,0.531-0.07
					c0.159-0.043,0.316-0.116,0.466-0.213c0.151-0.095,0.288-0.199,0.415-0.313c0.126-0.109,0.292-0.26,0.494-0.449
					c0.084-0.071,0.203-0.109,0.355-0.109c0.168,0,0.301,0.046,0.406,0.139c0.104,0.092,0.152,0.219,0.152,0.386
					c0,0.147-0.055,0.317-0.167,0.512c-0.117,0.198-0.289,0.385-0.522,0.566c-0.234,0.178-0.524,0.33-0.873,0.446
					c-0.35,0.119-0.754,0.179-1.207,0.179c-1.044,0-1.853-0.295-2.429-0.889c-0.577-0.595-0.87-1.401-0.87-2.418
					c0-0.479,0.073-0.924,0.217-1.334c0.14-0.411,0.348-0.76,0.624-1.055c0.272-0.294,0.606-0.518,1.008-0.674
					c0.399-0.156,0.842-0.234,1.33-0.234c0.632,0,1.175,0.134,1.629,0.404c0.452,0.264,0.796,0.61,1.018,1.034
					c0.226,0.425,0.339,0.855,0.339,1.296c0,0.405-0.118,0.669-0.351,0.791C273.947,481.896,273.619,481.957,273.195,481.957
					 M270.024,481.035h2.938c-0.039-0.553-0.186-0.969-0.446-1.242c-0.261-0.276-0.599-0.413-1.025-0.413
					c-0.404,0-0.736,0.137-0.995,0.418C270.237,480.078,270.078,480.489,270.024,481.035"/>
				<path id="XMLID_579_" style="opacity:0.5;fill:#4B4B4B;" d="M279.937,481.957h-3.171c0.004,0.367,0.078,0.694,0.222,0.974
					c0.145,0.279,0.337,0.491,0.576,0.635c0.239,0.142,0.504,0.212,0.795,0.212c0.192,0,0.37-0.021,0.528-0.07
					c0.162-0.043,0.316-0.116,0.469-0.213c0.151-0.095,0.287-0.199,0.415-0.313c0.124-0.109,0.29-0.26,0.493-0.449
					c0.084-0.071,0.204-0.109,0.355-0.109c0.168,0,0.302,0.046,0.406,0.139c0.103,0.092,0.15,0.219,0.15,0.386
					c0,0.147-0.054,0.317-0.171,0.512c-0.11,0.198-0.284,0.385-0.519,0.566c-0.231,0.178-0.525,0.33-0.872,0.446
					c-0.349,0.119-0.755,0.179-1.209,0.179c-1.042,0-1.849-0.295-2.429-0.889c-0.577-0.595-0.868-1.401-0.868-2.418
					c0-0.479,0.073-0.924,0.217-1.334c0.142-0.411,0.349-0.76,0.622-1.055c0.272-0.294,0.608-0.518,1.009-0.674
					c0.398-0.156,0.844-0.234,1.331-0.234c0.63,0,1.174,0.134,1.633,0.404c0.45,0.264,0.791,0.61,1.013,1.034
					c0.225,0.425,0.341,0.855,0.341,1.296c0,0.405-0.12,0.669-0.351,0.791C280.688,481.896,280.36,481.957,279.937,481.957
					 M276.767,481.035h2.938c-0.04-0.553-0.19-0.969-0.447-1.242c-0.263-0.276-0.601-0.413-1.027-0.413
					c-0.403,0-0.735,0.137-0.996,0.418C276.978,480.078,276.819,480.489,276.767,481.035"/>
				<path id="XMLID_582_" style="opacity:0.5;fill:#4B4B4B;" d="M283.487,479.174v0.194c0.304-0.375,0.621-0.651,0.953-0.828
					c0.324-0.178,0.699-0.267,1.114-0.267c0.497,0,0.96,0.13,1.379,0.386c0.419,0.259,0.749,0.635,0.993,1.129
					c0.244,0.497,0.366,1.081,0.366,1.758c0,0.497-0.07,0.957-0.21,1.376c-0.14,0.418-0.336,0.767-0.58,1.05
					c-0.246,0.281-0.535,0.501-0.868,0.654c-0.339,0.151-0.695,0.227-1.08,0.227c-0.461,0-0.853-0.093-1.166-0.28
					c-0.314-0.182-0.614-0.458-0.901-0.816v2.433c0,0.71-0.26,1.069-0.778,1.069c-0.306,0-0.505-0.091-0.607-0.275
					c-0.095-0.187-0.146-0.452-0.146-0.807v-6.996c0-0.309,0.067-0.537,0.2-0.692c0.134-0.149,0.32-0.228,0.553-0.228
					c0.231,0,0.416,0.078,0.56,0.234C283.416,478.655,283.487,478.877,283.487,479.174 M286.665,481.529
					c0-0.428-0.067-0.796-0.197-1.102c-0.131-0.308-0.312-0.542-0.541-0.705c-0.229-0.164-0.489-0.248-0.77-0.248
					c-0.446,0-0.824,0.178-1.13,0.527c-0.308,0.354-0.462,0.872-0.462,1.558c0,0.642,0.153,1.146,0.46,1.504
					c0.304,0.358,0.679,0.536,1.133,0.536c0.268,0,0.519-0.079,0.748-0.233c0.232-0.158,0.416-0.392,0.552-0.704
					C286.595,482.35,286.665,481.971,286.665,481.529"/>
				<path id="XMLID_585_" style="opacity:0.5;fill:#4B4B4B;" d="M289.925,477.508c-0.226,0-0.418-0.071-0.577-0.209
					c-0.162-0.139-0.242-0.333-0.242-0.585c0-0.23,0.082-0.419,0.248-0.569c0.164-0.147,0.354-0.222,0.571-0.222
					c0.212,0,0.397,0.067,0.559,0.2c0.162,0.137,0.244,0.334,0.244,0.591c0,0.25-0.079,0.444-0.236,0.585
					C290.332,477.436,290.144,477.508,289.925,477.508 M290.727,479.182v4.689c0,0.322-0.078,0.568-0.231,0.732
					c-0.156,0.168-0.35,0.25-0.588,0.25c-0.238,0-0.428-0.084-0.58-0.254c-0.146-0.173-0.222-0.416-0.222-0.729v-4.642
					c0-0.319,0.076-0.559,0.222-0.721c0.152-0.165,0.342-0.245,0.58-0.245c0.238,0,0.432,0.079,0.588,0.245
					C290.65,478.669,290.727,478.896,290.727,479.182"/>
				<path id="XMLID_588_" style="opacity:0.5;fill:#4B4B4B;" d="M295.952,484.113l-1.428-2.354l-0.88,0.83v1.291
					c0,0.312-0.083,0.551-0.248,0.718c-0.161,0.17-0.354,0.254-0.566,0.254c-0.249,0-0.447-0.082-0.588-0.25
					c-0.142-0.165-0.215-0.41-0.215-0.734v-6.915c0-0.358,0.071-0.632,0.207-0.821c0.139-0.19,0.341-0.283,0.596-0.283
					c0.25,0,0.445,0.086,0.593,0.257c0.146,0.169,0.221,0.421,0.221,0.751v3.933l1.822-1.914c0.227-0.235,0.396-0.4,0.517-0.486
					c0.118-0.087,0.262-0.13,0.431-0.13c0.204,0,0.371,0.065,0.51,0.193c0.132,0.129,0.2,0.291,0.2,0.483
					c0,0.237-0.221,0.555-0.659,0.951l-0.861,0.789l1.662,2.614c0.121,0.196,0.212,0.34,0.265,0.441
					c0.052,0.1,0.081,0.2,0.081,0.289c0,0.258-0.071,0.459-0.213,0.61c-0.14,0.148-0.327,0.221-0.554,0.221
					c-0.198,0-0.352-0.051-0.458-0.16C296.281,484.585,296.133,484.391,295.952,484.113"/>
				<path id="XMLID_589_" style="opacity:0.5;fill:#4B4B4B;" d="M299.474,484.853c-0.245,0-0.455-0.079-0.634-0.238
					c-0.178-0.156-0.268-0.379-0.268-0.665c0-0.241,0.086-0.449,0.256-0.622c0.172-0.174,0.38-0.262,0.63-0.262
					c0.248,0,0.46,0.087,0.639,0.258c0.175,0.172,0.264,0.383,0.264,0.626c0,0.283-0.089,0.505-0.264,0.662
					C299.918,484.775,299.711,484.853,299.474,484.853"/>
				<path id="XMLID_590_" style="opacity:0.5;fill:#4B4B4B;" d="M307.536,482.847c0,0.2-0.06,0.418-0.182,0.646
					c-0.12,0.231-0.305,0.449-0.553,0.656c-0.247,0.207-0.557,0.377-0.935,0.502c-0.375,0.126-0.8,0.192-1.269,0.192
					c-1.004,0-1.786-0.294-2.349-0.876c-0.56-0.585-0.841-1.368-0.841-2.35c0-0.667,0.128-1.254,0.387-1.765
					c0.254-0.509,0.628-0.905,1.113-1.184c0.487-0.28,1.072-0.419,1.746-0.419c0.421,0,0.805,0.061,1.158,0.184
					c0.35,0.122,0.645,0.282,0.891,0.474c0.242,0.197,0.428,0.402,0.556,0.62c0.129,0.22,0.192,0.425,0.192,0.617
					c0,0.192-0.071,0.357-0.214,0.492c-0.147,0.134-0.322,0.203-0.524,0.203c-0.137,0-0.248-0.035-0.338-0.104
					c-0.09-0.07-0.19-0.181-0.299-0.339c-0.198-0.299-0.404-0.526-0.623-0.674c-0.214-0.152-0.488-0.226-0.821-0.226
					c-0.476,0-0.865,0.186-1.158,0.561c-0.292,0.372-0.44,0.887-0.44,1.534c0,0.305,0.039,0.587,0.114,0.842
					c0.073,0.255,0.182,0.472,0.325,0.653c0.144,0.179,0.315,0.315,0.516,0.409c0.203,0.096,0.426,0.141,0.665,0.141
					c0.326,0,0.604-0.075,0.836-0.225c0.235-0.151,0.439-0.38,0.616-0.689c0.099-0.182,0.204-0.324,0.318-0.427
					c0.114-0.102,0.256-0.156,0.422-0.156c0.198,0,0.363,0.077,0.491,0.227C307.469,482.516,307.536,482.678,307.536,482.847"/>
				<path id="XMLID_591_" style="opacity:0.5;fill:#4B4B4B;" d="M314.53,481.559c0,0.481-0.076,0.928-0.222,1.337
					c-0.154,0.408-0.37,0.758-0.656,1.049c-0.284,0.293-0.626,0.518-1.02,0.675c-0.4,0.154-0.844,0.234-1.337,0.234
					c-0.491,0-0.933-0.08-1.326-0.239c-0.389-0.156-0.732-0.384-1.016-0.676c-0.288-0.298-0.505-0.646-0.657-1.048
					c-0.143-0.402-0.219-0.846-0.219-1.332c0-0.491,0.078-0.941,0.224-1.349c0.151-0.409,0.368-0.757,0.65-1.046
					c0.282-0.289,0.621-0.511,1.019-0.669c0.402-0.156,0.844-0.234,1.326-0.234c0.49,0,0.936,0.078,1.337,0.239
					c0.399,0.157,0.739,0.384,1.027,0.674c0.286,0.297,0.502,0.643,0.65,1.045C314.455,480.627,314.53,481.07,314.53,481.559
					 M312.902,481.559c0-0.662-0.146-1.176-0.436-1.543c-0.289-0.372-0.681-0.555-1.171-0.555c-0.318,0-0.597,0.082-0.839,0.246
					c-0.242,0.164-0.425,0.406-0.556,0.728c-0.131,0.321-0.197,0.696-0.197,1.124c0,0.424,0.064,0.792,0.194,1.108
					c0.13,0.319,0.314,0.561,0.554,0.729c0.241,0.167,0.522,0.253,0.845,0.253c0.49,0,0.882-0.185,1.171-0.557
					C312.756,482.723,312.902,482.21,312.902,481.559"/>
				<path id="XMLID_594_" style="opacity:0.5;fill:#4B4B4B;" d="M320.712,481.678v2.154c0,0.342-0.075,0.595-0.231,0.767
					c-0.156,0.17-0.357,0.255-0.611,0.255c-0.245,0-0.446-0.085-0.595-0.255c-0.154-0.173-0.232-0.425-0.232-0.767v-2.582
					c0-0.408-0.013-0.726-0.04-0.953c-0.029-0.221-0.105-0.41-0.227-0.552c-0.123-0.147-0.318-0.22-0.582-0.22
					c-0.532,0-0.88,0.181-1.048,0.551c-0.167,0.36-0.254,0.883-0.254,1.567v2.189c0,0.336-0.076,0.592-0.226,0.765
					c-0.156,0.171-0.355,0.258-0.603,0.258c-0.247,0-0.448-0.087-0.604-0.258c-0.157-0.173-0.235-0.428-0.235-0.765v-4.637
					c0-0.306,0.07-0.538,0.209-0.694c0.143-0.16,0.329-0.239,0.556-0.239c0.223,0,0.407,0.077,0.557,0.222
					c0.148,0.149,0.222,0.354,0.222,0.615v0.153c0.283-0.334,0.584-0.582,0.903-0.738c0.323-0.162,0.676-0.241,1.07-0.241
					c0.407,0,0.757,0.082,1.049,0.244c0.293,0.163,0.533,0.409,0.725,0.735c0.275-0.33,0.568-0.577,0.881-0.738
					c0.312-0.161,0.658-0.241,1.039-0.241c0.441,0,0.826,0.089,1.146,0.262c0.319,0.174,0.558,0.425,0.717,0.747
					c0.138,0.295,0.206,0.756,0.206,1.385v3.164c0,0.342-0.076,0.595-0.229,0.767c-0.154,0.17-0.36,0.255-0.612,0.255
					c-0.246,0-0.446-0.087-0.603-0.258c-0.156-0.173-0.235-0.428-0.235-0.765v-2.726c0-0.349-0.015-0.627-0.043-0.836
					c-0.029-0.211-0.11-0.388-0.239-0.529c-0.132-0.142-0.331-0.215-0.596-0.215c-0.214,0-0.416,0.066-0.609,0.192
					c-0.192,0.124-0.342,0.298-0.45,0.508C320.774,480.5,320.712,480.984,320.712,481.678"/>
			</g>
			<g id="XMLID_595_">
				<path id="XMLID_596_" style="opacity:0.5;fill:#4B4B4B;" d="M245.272,481.167c-0.001-0.003-0.001-0.006-0.001-0.011
					C245.271,481.161,245.271,481.164,245.272,481.167z"/>
				<path id="XMLID_597_" style="opacity:0.5;fill:#4B4B4B;" d="M245.354,481.685c0.001,0,0.001,0,0.002,0
					c-0.031-0.148-0.055-0.294-0.074-0.439C245.3,481.392,245.324,481.539,245.354,481.685z"/>
				<path id="XMLID_598_" style="opacity:0.5;fill:#4B4B4B;" d="M245.89,483.189c-0.004-0.006-0.007-0.013-0.011-0.021
					C245.883,483.175,245.886,483.183,245.89,483.189z"/>
				<path id="XMLID_599_" style="opacity:0.5;fill:#4B4B4B;" d="M245.839,483.089c-0.014-0.028-0.027-0.056-0.041-0.084
					C245.811,483.034,245.825,483.061,245.839,483.089z"/>
				<path id="XMLID_600_" style="opacity:0.5;fill:#4B4B4B;" d="M245.504,482.264c0.079,0.25,0.175,0.493,0.286,0.724
					c-0.113-0.236-0.206-0.479-0.284-0.724C245.506,482.264,245.505,482.264,245.504,482.264z"/>
				<path id="XMLID_601_" style="opacity:0.5;fill:#4B4B4B;" d="M251.545,474.956c0.313,0,0.544,0.025,0.809,0.07l0.075-0.477
					c0,0-0.732-0.225-1.694-0.146l-0.076-0.259c0.299-0.063,0.524-0.329,0.524-0.646c0-0.364-0.297-0.659-0.661-0.659
					c-0.364,0-0.66,0.295-0.66,0.659c0,0.317,0.224,0.583,0.522,0.646l0.084,0.289c-1.021,0.14-1.834,0.539-1.834,0.539l0.144,0.441
					c0.618-0.206,1.154-0.331,1.64-0.383C250.895,474.978,251.253,474.956,251.545,474.956z"/>
				<path id="XMLID_602_" style="opacity:0.5;fill:#4B4B4B;" d="M245.878,477.368l0.004-0.005c0.024-0.031,0.047-0.06,0.071-0.089
					l-0.196-0.141l-0.305-0.223c-0.017,0.024-0.497,0.465-0.876,1.28c-0.016-0.026-0.035-0.051-0.056-0.074
					c-0.114-0.124-0.272-0.187-0.474-0.184c-0.002,0-0.006,0-0.009,0c-0.124,0-0.211-0.042-0.267-0.092
					c0.056-0.071,0.09-0.16,0.09-0.258c0-0.23-0.187-0.418-0.419-0.418c-0.23,0-0.417,0.188-0.417,0.418
					c0,0.231,0.187,0.418,0.417,0.418c0.036,0,0.071-0.006,0.104-0.013c0.103,0.114,0.266,0.214,0.505,0.209
					c0.123-0.001,0.213,0.031,0.273,0.097c0.07,0.076,0.093,0.185,0.1,0.267c-0.001,0.001-0.001,0.003-0.002,0.003
					c-0.272,0.743-0.195,1.669-0.195,1.669l0.661,0.026c0.013-0.337,0.062-0.927,0.232-1.394
					C245.449,477.958,245.861,477.392,245.878,477.368z"/>
				<path id="XMLID_603_" style="opacity:0.5;fill:#4B4B4B;" d="M257.295,475.509c-0.23,0-0.418,0.187-0.418,0.418
					c0,0.036,0.005,0.07,0.015,0.103c-0.115,0.104-0.214,0.267-0.211,0.507c0.002,0.123-0.03,0.212-0.096,0.273
					c-0.053,0.047-0.12,0.072-0.185,0.088c-0.492-0.689-1.097-1.11-1.097-1.11l-0.474,0.508c0.358,0.326,0.725,0.734,1.08,1.244
					c0.246,0.352,0.499,0.806,0.71,1.259l0.64-0.304c0,0-0.292-0.722-0.704-1.37c0.071-0.025,0.143-0.064,0.207-0.12
					c0.125-0.113,0.187-0.273,0.183-0.474c-0.001-0.13,0.041-0.218,0.093-0.276c0.071,0.054,0.161,0.089,0.258,0.089
					c0.232,0,0.419-0.187,0.419-0.418C257.713,475.695,257.527,475.509,257.295,475.509z"/>
				<path id="XMLID_604_" style="opacity:0.5;fill:#4B4B4B;" d="M255.634,481.26c-0.881,0.429-2.33,0.996-4.238,1.262
					c-0.749,0.104-1.475,0.142-2.142,0.142c-0.869,0-1.638-0.065-2.227-0.139c-0.673-0.085-1.199-0.189-1.52-0.261
					c0.078,0.245,0.171,0.488,0.284,0.724c0.002,0.006,0.005,0.013,0.008,0.017c0.013,0.027,0.027,0.056,0.041,0.084
					c0.013,0.027,0.027,0.054,0.04,0.079c0.004,0.007,0.007,0.015,0.011,0.021c0.189,0.356,0.416,0.684,0.675,0.968
					c0.9,0.984,1.817,1.14,1.826,1.141l0.015,0.002l0.014,0.005c0.008,0.003,0.821,0.266,2.057,0.266
					c1.216,0,2.409-0.245,3.546-0.729c0.842-0.431,1.639-1.085,2.034-1.669c0.305-0.452,0.525-0.933,0.656-1.434
					c0.07-0.266,0.125-0.692,0.092-1.141C256.556,480.764,256.164,481.002,255.634,481.26z"/>
				<path id="XMLID_605_" style="opacity:0.5;fill:#4B4B4B;" d="M246.161,477.577c-0.026,0.037-0.408,0.578-0.709,1.408
					c-0.226,0.622-0.216,1.527-0.216,1.537v0.002c0,0.212,0.012,0.423,0.035,0.632c0,0.005,0,0.008,0.001,0.011
					c0.002,0.027,0.007,0.053,0.009,0.079c0.019,0.145,0.043,0.291,0.074,0.439c0.438,0.111,3.049,0.72,5.967,0.314
					c1.829-0.254,3.218-0.795,4.062-1.204c0.701-0.34,1.151-0.648,1.325-0.774c-0.173-0.643-0.651-1.65-1.09-2.279
					c-1.253-1.791-2.604-2.25-3.298-2.365c-0.265-0.043-0.477-0.068-0.777-0.068c-0.279,0-0.626,0.022-1.089,0.071
					c-0.465,0.048-0.982,0.17-1.583,0.372c-0.842,0.282-1.605,0.725-2.204,1.28l-0.021,0.019
					C246.56,477.133,246.374,477.305,246.161,477.577z M253.829,477.16c0.601,0,1.089,0.488,1.089,1.09s-0.489,1.09-1.089,1.09
					c-0.601,0-1.089-0.489-1.089-1.09S253.228,477.16,253.829,477.16z M248.678,477.116c0.973,0,1.76,0.789,1.76,1.761
					c0,0.972-0.787,1.759-1.76,1.759c-0.972,0-1.76-0.787-1.76-1.759C246.918,477.905,247.707,477.116,248.678,477.116z"/>
			</g>
		</g>
	</g>
</g>
</svg>
